<svg width="24" height="24" viewBox="0 0 24 24" fill="none" xmlns="http://www.w3.org/2000/svg">
  <path d="M5 5.5C5 3.57 8.13 2 12 2C15.87 2 19 3.57 19 5.5V18.5C19 20.43 15.87 22 12 22C8.13 22 5 20.43 5 18.5V5.5Z" stroke="currentColor" stroke-width="1.6"/>
  <path d="M19 5.5C19 7.43 15.87 9 12 9C8.13 9 5 7.43 5 5.5" stroke="currentColor" stroke-width="1.6"/>
  <path d="M19 10C19 11.93 15.87 13.5 12 13.5C8.13 13.5 5 11.93 5 10" stroke="currentColor" stroke-width="1.6"/>
  <path d="M19 14.5C19 16.43 15.87 18 12 18C8.13 18 5 16.43 5 14.5" stroke="currentColor" stroke-width="1.6"/>
  <path d="M9.2 11.6L7.7 13L9.2 14.4" stroke="currentColor" stroke-width="1.4" stroke-linecap="round" stroke-linejoin="round"/>
  <path d="M14.8 11.6L16.3 13L14.8 14.4" stroke="currentColor" stroke-width="1.4" stroke-linecap="round" stroke-linejoin="round"/>
</svg>
